<svg width="1784" height="276" viewBox="0 0 1784 276" fill="none" xmlns="http://www.w3.org/2000/svg">
<mask id="mask0_171_61" style="mask-type:luminance" maskUnits="userSpaceOnUse" x="1568" y="3" width="136" height="268">
<path d="M1568.69 3.901H1703.35V270.568H1568.69V3.901Z" fill="white"/>
</mask>
<g mask="url(#mask0_171_61)">
<mask id="mask1_171_61" style="mask-type:luminance" maskUnits="userSpaceOnUse" x="1569" y="5" width="134" height="266">
<path d="M1643.05 5.17188L1569.43 270.255H1630.98L1702.52 5.17188H1643.05Z" fill="white"/>
</mask>
<g mask="url(#mask1_171_61)">
<path d="M1502.3 251.995L1693.35 303.958L1769.65 23.4323L1578.6 -28.5312L1502.3 251.995Z" fill="url(#paint0_linear_171_61)"/>
</g>
</g>
<path d="M1702.52 5.17188H1643.05L1721.8 270.255H1783.56L1702.52 5.17188ZM1630.98 270.255L1550.07 5.09896H1490.82L1428.71 270.255H1487.36L1523.77 116.224L1569.43 270.255H1630.98ZM0 270.203H57.7083V6.14063H0V270.203ZM1377.01 55.3125V5.17188H1208.85V270.203H1377.01V220.063H1265.75V156.792H1345.11V108.24H1265.75V55.3125H1377.01ZM1115.71 128.932C1105.63 123.359 1092.9 117.661 1077.51 111.823L1061.19 105.458C1050.58 100.943 1042.89 96.7031 1038.11 92.7135C1033.34 88.7396 1030.95 83.1667 1030.95 76.0052C1030.95 67.7865 1034.4 61.2188 1041.3 56.3073C1048.19 51.401 1057.88 48.9479 1070.35 48.9479C1080.43 48.9479 1091.1 50.5365 1102.38 53.7188C1113.66 56.901 1128.89 63.2865 1138.71 68.8542V13.3385C1114.3 3.78646 1094.48 0 1071.15 0C1040.36 0 1016.36 7.29688 999.12 21.8854C981.87 36.4792 973.25 56.5052 973.25 81.974C973.25 97.6302 976.495 110.37 983 120.177C989.5 129.995 997.255 137.625 1006.28 143.063C1015.3 148.5 1027.23 154.276 1042.09 160.37C1044.22 161.167 1046.07 161.896 1047.67 162.557C1049.26 163.219 1050.71 163.823 1052.04 164.349L1061.59 168.328C1072.99 172.844 1081.35 177.016 1086.66 180.865C1091.97 184.714 1094.63 190.208 1094.63 197.38C1094.63 206.135 1090.64 213.167 1082.68 218.469C1074.72 223.781 1064.38 226.427 1051.65 226.427C1040.5 226.427 1028.36 224.37 1015.23 220.255C1002.1 216.146 988.089 209.458 976.151 202.026V258.109C986.229 263.948 994.943 266.755 1008.86 270.203C1022.8 273.641 1037.45 275.375 1052.84 275.375C1084.14 275.375 1108.55 268.208 1126.06 253.891C1143.57 239.557 1152.32 219.531 1152.32 193.792C1152.32 177.083 1148.74 163.49 1141.58 153.01C1134.41 142.531 1125.79 134.5 1115.71 128.932ZM889 128.932C878.917 123.359 866.182 117.661 850.802 111.823L834.484 105.458C823.87 100.943 816.182 96.7031 811.401 92.7135C806.63 88.7396 804.24 83.1667 804.24 76.0052C804.24 67.7865 807.688 61.2188 814.589 56.3073C821.484 51.401 831.167 48.9479 843.641 48.9479C853.714 48.9479 864.391 50.5365 875.672 53.7188C886.948 56.901 902.182 63.2865 912 68.8542V13.3385C887.583 3.78646 867.776 0 844.438 0C813.656 0 789.651 7.29688 772.406 21.8854C755.161 36.4792 746.542 56.5052 746.542 81.974C746.542 97.6302 749.786 110.37 756.292 120.177C762.792 129.995 770.547 137.625 779.568 143.063C788.583 148.5 800.521 154.276 815.385 160.37C817.505 161.167 819.365 161.896 820.958 162.557C822.547 163.219 824 163.823 825.333 164.349L834.88 168.328C846.286 172.844 854.646 177.016 859.953 180.865C865.26 184.714 867.917 190.208 867.917 197.38C867.917 206.135 863.932 213.167 855.974 218.469C848.016 223.781 837.667 226.427 824.938 226.427C813.792 226.427 801.656 224.37 788.521 220.255C775.391 216.146 761.375 209.458 749.443 202.026V258.109C759.516 263.948 768.229 266.755 782.156 270.203C796.083 273.641 810.745 275.375 826.13 275.375C857.432 275.375 881.839 268.208 899.349 253.891C916.859 239.557 925.615 219.531 925.615 193.792C925.615 177.083 922.031 163.49 914.87 153.01C907.703 142.531 899.083 134.5 889 128.932ZM137.453 270.203H190.786V157.286L137.453 200.932V270.203ZM378.99 5.17188H325.656V156.385L137.453 1.98958V77.2917L378.99 275.375V5.17188ZM646.417 138.943C646.417 185.151 613.297 222.901 565.536 222.901C517.781 222.901 483.891 184.38 483.891 138.172V137.406C483.891 91.1875 517.01 53.4375 564.766 53.4375C612.526 53.4375 646.417 91.9583 646.417 138.172V138.943ZM565.531 1.39063C483.922 1.39063 424.599 62.974 424.599 138.172V138.927C424.599 214.12 483.167 274.948 564.776 274.948C646.391 274.948 705.708 213.365 705.708 138.172V137.422C705.708 62.224 647.146 1.39063 565.531 1.39063Z" fill="white"/>
<defs>
<linearGradient id="paint0_linear_171_61" x1="1598.09" y1="278.049" x2="1674.39" y2="-2.4779" gradientUnits="userSpaceOnUse">
<stop stop-color="#3058AF"/>
<stop offset="0.125" stop-color="#3058AF"/>
<stop offset="0.132812" stop-color="#3058AF"/>
<stop offset="0.136719" stop-color="#3058B0"/>
<stop offset="0.140625" stop-color="#3058B0"/>
<stop offset="0.144531" stop-color="#3059B0"/>
<stop offset="0.148438" stop-color="#3059B1"/>
<stop offset="0.152344" stop-color="#305AB1"/>
<stop offset="0.15625" stop-color="#305AB1"/>
<stop offset="0.160156" stop-color="#305BB2"/>
<stop offset="0.164062" stop-color="#305BB2"/>
<stop offset="0.167969" stop-color="#305CB2"/>
<stop offset="0.171875" stop-color="#305CB3"/>
<stop offset="0.175781" stop-color="#305DB3"/>
<stop offset="0.179688" stop-color="#305DB3"/>
<stop offset="0.183594" stop-color="#305EB4"/>
<stop offset="0.1875" stop-color="#305EB4"/>
<stop offset="0.191406" stop-color="#305FB4"/>
<stop offset="0.195312" stop-color="#305FB5"/>
<stop offset="0.199219" stop-color="#305FB5"/>
<stop offset="0.203125" stop-color="#3060B5"/>
<stop offset="0.207031" stop-color="#3060B6"/>
<stop offset="0.210938" stop-color="#3061B6"/>
<stop offset="0.214844" stop-color="#3061B6"/>
<stop offset="0.21875" stop-color="#3062B7"/>
<stop offset="0.222656" stop-color="#3062B7"/>
<stop offset="0.226562" stop-color="#3063B7"/>
<stop offset="0.230469" stop-color="#3063B8"/>
<stop offset="0.234375" stop-color="#3064B8"/>
<stop offset="0.238281" stop-color="#3064B8"/>
<stop offset="0.242188" stop-color="#3065B9"/>
<stop offset="0.246094" stop-color="#3065B9"/>
<stop offset="0.25" stop-color="#3066BA"/>
<stop offset="0.253906" stop-color="#3066BA"/>
<stop offset="0.257812" stop-color="#3067BA"/>
<stop offset="0.261719" stop-color="#3167BB"/>
<stop offset="0.265625" stop-color="#3168BB"/>
<stop offset="0.269531" stop-color="#3168BB"/>
<stop offset="0.273438" stop-color="#3169BC"/>
<stop offset="0.277344" stop-color="#3169BC"/>
<stop offset="0.28125" stop-color="#316ABC"/>
<stop offset="0.285156" stop-color="#316ABD"/>
<stop offset="0.289062" stop-color="#316BBD"/>
<stop offset="0.292969" stop-color="#316BBD"/>
<stop offset="0.296875" stop-color="#316CBE"/>
<stop offset="0.300781" stop-color="#316CBE"/>
<stop offset="0.304688" stop-color="#316DBE"/>
<stop offset="0.308594" stop-color="#316DBF"/>
<stop offset="0.3125" stop-color="#316EBF"/>
<stop offset="0.316406" stop-color="#316EBF"/>
<stop offset="0.320312" stop-color="#316FC0"/>
<stop offset="0.324219" stop-color="#316FC0"/>
<stop offset="0.328125" stop-color="#3170C0"/>
<stop offset="0.332031" stop-color="#3171C1"/>
<stop offset="0.335938" stop-color="#3171C1"/>
<stop offset="0.339844" stop-color="#3172C1"/>
<stop offset="0.34375" stop-color="#3172C2"/>
<stop offset="0.347656" stop-color="#3173C2"/>
<stop offset="0.351562" stop-color="#3173C3"/>
<stop offset="0.355469" stop-color="#3174C3"/>
<stop offset="0.359375" stop-color="#3174C3"/>
<stop offset="0.363281" stop-color="#3175C4"/>
<stop offset="0.367188" stop-color="#3175C4"/>
<stop offset="0.371094" stop-color="#3176C4"/>
<stop offset="0.375" stop-color="#3176C5"/>
<stop offset="0.378906" stop-color="#3177C5"/>
<stop offset="0.382812" stop-color="#3177C5"/>
<stop offset="0.386719" stop-color="#3178C6"/>
<stop offset="0.390625" stop-color="#3278C6"/>
<stop offset="0.394531" stop-color="#3279C6"/>
<stop offset="0.398438" stop-color="#3279C7"/>
<stop offset="0.402344" stop-color="#327AC7"/>
<stop offset="0.40625" stop-color="#327AC7"/>
<stop offset="0.410156" stop-color="#327BC8"/>
<stop offset="0.414062" stop-color="#327BC8"/>
<stop offset="0.417969" stop-color="#327CC8"/>
<stop offset="0.421875" stop-color="#327CC9"/>
<stop offset="0.425781" stop-color="#327DC9"/>
<stop offset="0.429688" stop-color="#327ECA"/>
<stop offset="0.433594" stop-color="#327ECA"/>
<stop offset="0.4375" stop-color="#327FCA"/>
<stop offset="0.441406" stop-color="#327FCB"/>
<stop offset="0.445313" stop-color="#3280CB"/>
<stop offset="0.449219" stop-color="#3280CB"/>
<stop offset="0.453125" stop-color="#3281CC"/>
<stop offset="0.457031" stop-color="#3281CC"/>
<stop offset="0.460938" stop-color="#3282CC"/>
<stop offset="0.464844" stop-color="#3282CD"/>
<stop offset="0.46875" stop-color="#3283CD"/>
<stop offset="0.472656" stop-color="#3283CD"/>
<stop offset="0.476562" stop-color="#3284CE"/>
<stop offset="0.480469" stop-color="#3284CE"/>
<stop offset="0.484375" stop-color="#3285CE"/>
<stop offset="0.488281" stop-color="#3386CF"/>
<stop offset="0.492188" stop-color="#3386CF"/>
<stop offset="0.496094" stop-color="#3387CF"/>
<stop offset="0.5" stop-color="#3387D0"/>
<stop offset="0.503906" stop-color="#3388D0"/>
<stop offset="0.507812" stop-color="#3388D1"/>
<stop offset="0.511719" stop-color="#3389D1"/>
<stop offset="0.515625" stop-color="#3389D1"/>
<stop offset="0.519531" stop-color="#338AD2"/>
<stop offset="0.523438" stop-color="#338AD2"/>
<stop offset="0.527344" stop-color="#338BD2"/>
<stop offset="0.53125" stop-color="#338CD3"/>
<stop offset="0.535156" stop-color="#338CD3"/>
<stop offset="0.539062" stop-color="#338DD3"/>
<stop offset="0.542969" stop-color="#338DD4"/>
<stop offset="0.546875" stop-color="#338ED4"/>
<stop offset="0.550781" stop-color="#338ED4"/>
<stop offset="0.554688" stop-color="#338FD5"/>
<stop offset="0.558594" stop-color="#338FD5"/>
<stop offset="0.5625" stop-color="#3390D5"/>
<stop offset="0.566406" stop-color="#3391D6"/>
<stop offset="0.570312" stop-color="#3491D6"/>
<stop offset="0.574219" stop-color="#3492D7"/>
<stop offset="0.578125" stop-color="#3492D7"/>
<stop offset="0.582031" stop-color="#3493D7"/>
<stop offset="0.585938" stop-color="#3493D8"/>
<stop offset="0.589844" stop-color="#3494D8"/>
<stop offset="0.59375" stop-color="#3494D8"/>
<stop offset="0.597656" stop-color="#3495D9"/>
<stop offset="0.601562" stop-color="#3496D9"/>
<stop offset="0.605469" stop-color="#3496D9"/>
<stop offset="0.609375" stop-color="#3497DA"/>
<stop offset="0.613281" stop-color="#3497DA"/>
<stop offset="0.617188" stop-color="#3498DA"/>
<stop offset="0.621094" stop-color="#3498DB"/>
<stop offset="0.625" stop-color="#3499DB"/>
<stop offset="0.628906" stop-color="#349ADC"/>
<stop offset="0.632812" stop-color="#349ADC"/>
<stop offset="0.636719" stop-color="#349BDC"/>
<stop offset="0.640625" stop-color="#359BDC"/>
<stop offset="0.648438" stop-color="#359BDD"/>
<stop offset="0.65625" stop-color="#359CDD"/>
<stop offset="0.664062" stop-color="#359CDD"/>
<stop offset="0.671875" stop-color="#359DDD"/>
<stop offset="0.679688" stop-color="#359DDD"/>
<stop offset="0.6875" stop-color="#359DDE"/>
<stop offset="0.695312" stop-color="#359EDE"/>
<stop offset="0.703125" stop-color="#359EDE"/>
<stop offset="0.710938" stop-color="#359FDE"/>
<stop offset="0.71875" stop-color="#359FDE"/>
<stop offset="0.726562" stop-color="#35A0DF"/>
<stop offset="0.734375" stop-color="#35A0DF"/>
<stop offset="0.742188" stop-color="#35A1DF"/>
<stop offset="0.75" stop-color="#36A1DF"/>
<stop offset="0.757812" stop-color="#36A2DF"/>
<stop offset="0.765625" stop-color="#36A2E0"/>
<stop offset="0.773438" stop-color="#36A2E0"/>
<stop offset="0.78125" stop-color="#36A3E0"/>
<stop offset="0.789062" stop-color="#36A3E0"/>
<stop offset="0.796875" stop-color="#36A4E0"/>
<stop offset="0.804688" stop-color="#36A4E1"/>
<stop offset="0.8125" stop-color="#36A5E1"/>
<stop offset="0.820312" stop-color="#36A5E1"/>
<stop offset="0.828125" stop-color="#36A6E1"/>
<stop offset="0.835937" stop-color="#36A6E1"/>
<stop offset="0.84375" stop-color="#36A6E2"/>
<stop offset="0.851562" stop-color="#37A7E2"/>
<stop offset="0.859375" stop-color="#37A7E2"/>
<stop offset="0.867187" stop-color="#37A8E2"/>
<stop offset="0.875" stop-color="#37A8E2"/>
<stop offset="0.882813" stop-color="#37A9E3"/>
<stop offset="0.890625" stop-color="#37A9E3"/>
<stop offset="0.898438" stop-color="#37AAE3"/>
<stop offset="0.90625" stop-color="#37AAE3"/>
<stop offset="0.914063" stop-color="#37ABE3"/>
<stop offset="0.921875" stop-color="#37ABE4"/>
<stop offset="0.929688" stop-color="#37ABE4"/>
<stop offset="0.9375" stop-color="#37ACE4"/>
<stop offset="0.945312" stop-color="#37ACE4"/>
<stop offset="0.953125" stop-color="#38ADE4"/>
<stop offset="0.960938" stop-color="#38ADE4"/>
<stop offset="0.96875" stop-color="#38AEE5"/>
<stop offset="0.976562" stop-color="#38AEE5"/>
<stop offset="0.984375" stop-color="#38AFE5"/>
<stop offset="0.992188" stop-color="#38AFE5"/>
<stop offset="1" stop-color="#38B0E5"/>
</linearGradient>
</defs>
</svg>
