<svg xmlns="http://www.w3.org/2000/svg" width="1200" height="500" viewBox="0 0 1200 500"><defs><marker id="a" markerWidth="10" markerHeight="10" refX="8" refY="3" orient="auto"><path d="M0 0v6l9-3z" fill="#17634f"/></marker></defs><rect width="1200" height="500" rx="24" fill="#f7f5ef"/><text x="600" y="62" text-anchor="middle" fill="#17333b" font-family="Arial,'PingFang SC',sans-serif" font-size="30" font-weight="700">结构化发票数据如何走完一笔交易？</text>
<g font-family="Arial,'PingFang SC',sans-serif" text-anchor="middle"><rect x="58" y="145" width="220" height="168" rx="12" fill="#fffefa" stroke="#c9d5cb" stroke-width="2"/><text x="168" y="193" fill="#17634f" font-size="18" font-weight="700">卖方业务系统</text><text x="168" y="231" fill="#17333b" font-size="17">开票 / 生成数据</text><text x="168" y="268" fill="#71807c" font-size="14">ERP · 财务软件</text>
<rect x="350" y="145" width="220" height="168" rx="12" fill="#eaf0e9" stroke="#b9cabc" stroke-width="2"/><text x="460" y="193" fill="#17634f" font-size="18" font-weight="700">规则验证</text><text x="460" y="231" fill="#17333b" font-size="17">格式 · 税额 · 字段</text><text x="460" y="268" fill="#71807c" font-size="14">修正错误 / 返回状态</text>
<rect x="642" y="145" width="220" height="168" rx="12" fill="#fffefa" stroke="#c9d5cb" stroke-width="2"/><text x="752" y="193" fill="#17634f" font-size="18" font-weight="700">平台或传输网络</text><text x="752" y="231" fill="#17333b" font-size="17">税务平台 / 网络</text><text x="752" y="268" fill="#71807c" font-size="14">因国家和模式而异</text>
<rect x="934" y="145" width="220" height="168" rx="12" fill="#17333b"/><text x="1044" y="193" fill="#d0ad6c" font-size="18" font-weight="700">买方业务系统</text><text x="1044" y="231" fill="#fffefa" font-size="17">收票 / 匹配 / 付款</text><text x="1044" y="268" fill="#dce6dd" font-size="14">应付账款 · 归档</text>
<path d="M280 229h61M572 229h61M864 229h61" stroke="#17634f" stroke-width="4" marker-end="url(#a)"/><path d="M1044 327v72H168v-72" fill="none" stroke="#c1a367" stroke-width="3" stroke-dasharray="8 8" marker-end="url(#a)"/><text x="600" y="436" fill="#526569" font-size="15">发票状态、回执与审计记录回到业务流程</text></g></svg>
